<svg xmlns="http://www.w3.org/2000/svg" width="600" height="450" viewBox="0 0 600 450"><rect width="100%" height="100%" fill="#DDDDDD"/><path fill="#999999" d="M135.37 209.095h4.86v26.03h-4.86v-11.38h-12.23v11.38h-4.86v-26.03h4.86v11.2h12.23zm10.09 7.56h4.47v18.47h-4.47zm5.08-5.38q0 .58-.23 1.08-.24.5-.63.88-.38.38-.9.6-.53.23-1.12.23-.58 0-1.09-.23-.51-.22-.89-.6t-.6-.88q-.23-.5-.23-1.08 0-.59.23-1.12.22-.52.6-.9.38-.37.89-.6.51-.22 1.09-.22.59 0 1.12.22.52.23.9.6.39.38.63.9.23.53.23 1.12m7.78 6.19.3 1.46q.56-.56 1.18-1.04.62-.47 1.31-.81.7-.33 1.49-.52t1.73-.19q1.51 0 2.68.52 1.17.51 1.95 1.44.79.92 1.19 2.21.41 1.29.41 2.84v11.75h-4.45v-11.75q0-1.7-.77-2.62-.78-.93-2.36-.93-1.15 0-2.16.52t-1.91 1.42v13.36h-4.45v-18.47h2.72q.87 0 1.14.81m20.89-9.09v10.26q1.08-1.01 2.38-1.64t3.04-.63q1.51 0 2.68.52 1.17.51 1.96 1.44.78.92 1.18 2.21.41 1.29.41 2.84v11.75h-4.45v-11.75q0-1.7-.77-2.62-.77-.93-2.36-.93-1.15 0-2.16.52t-1.91 1.42v13.36h-4.44v-26.75zm30.78 16.92h8.28l-3.16-8.66q-.24-.57-.49-1.36-.25-.8-.5-1.71-.24.91-.49 1.71-.25.81-.49 1.4zm6.61-16.2 10.22 26.03h-3.74q-.63 0-1.03-.32-.39-.31-.59-.78l-1.94-5.31h-10.79l-1.94 5.31q-.14.42-.56.76-.41.34-1.02.34h-3.78l10.24-26.03zm16.07 8.37.31 1.46q.56-.56 1.18-1.04.62-.47 1.31-.81.7-.33 1.49-.52t1.73-.19q1.51 0 2.68.52 1.17.51 1.95 1.44.78.92 1.19 2.21.4 1.29.4 2.84v11.75h-4.44v-11.75q0-1.7-.78-2.62-.77-.93-2.35-.93-1.16 0-2.16.52-1.01.52-1.91 1.42v13.36h-4.45v-18.47h2.72q.86 0 1.13.81m20.9-9.09v10.26q1.08-1.01 2.38-1.64 1.29-.63 3.04-.63 1.51 0 2.68.52 1.17.51 1.95 1.44.79.92 1.19 2.21.41 1.29.41 2.84v11.75h-4.45v-11.75q0-1.7-.77-2.62-.78-.93-2.36-.93-1.15 0-2.16.52t-1.91 1.42v13.36h-4.44v-26.75zm30.15 13.81h3.62q1.33 0 2.32-.34.99-.33 1.65-.95t.98-1.51.32-1.99q0-1.04-.32-1.89t-.97-1.44-1.64-.91q-.99-.31-2.34-.31h-3.62zm-4.84-13.09h8.46q2.61 0 4.52.61 1.91.62 3.15 1.71 1.24 1.1 1.84 2.63.61 1.53.61 3.35 0 1.89-.63 3.46-.63 1.58-1.89 2.71-1.26 1.14-3.16 1.77t-4.44.63h-3.62v9.16h-4.84zm26.03-.72v10.26q1.08-1.01 2.37-1.64 1.3-.63 3.05-.63 1.51 0 2.68.52 1.17.51 1.95 1.44.78.92 1.19 2.21.4 1.29.4 2.84v11.75h-4.44v-11.75q0-1.7-.78-2.62-.77-.93-2.35-.93-1.16 0-2.16.52-1.01.52-1.91 1.42v13.36h-4.45v-26.75zm24.03 7.99q2.05 0 3.73.67 1.69.67 2.88 1.89 1.2 1.22 1.85 2.99.65 1.76.65 3.94 0 2.2-.65 3.96t-1.85 3.01q-1.19 1.24-2.88 1.9-1.68.67-3.73.67-2.07 0-3.76-.67-1.7-.66-2.89-1.9-1.2-1.25-1.86-3.01-.65-1.76-.65-3.96 0-2.18.65-3.94.66-1.77 1.86-2.99 1.19-1.22 2.89-1.89 1.69-.67 3.76-.67m0 15.61q2.3 0 3.41-1.55t1.11-4.53q0-2.99-1.11-4.56-1.11-1.56-3.41-1.56-2.34 0-3.47 1.57-1.12 1.58-1.12 4.55t1.12 4.52q1.13 1.56 3.47 1.56m16.36-14.51.31 1.46q.55-.56 1.18-1.04.62-.47 1.31-.81.69-.33 1.48-.52.8-.19 1.73-.19 1.51 0 2.68.52 1.17.51 1.96 1.44.78.92 1.19 2.21.4 1.29.4 2.84v11.75h-4.45v-11.75q0-1.7-.77-2.62-.77-.93-2.36-.93-1.15 0-2.16.52t-1.91 1.42v13.36h-4.44v-18.47h2.72q.86 0 1.13.81m23.2 7.98q.83 0 1.44-.23.61-.22 1.02-.62.4-.4.61-.95.21-.56.21-1.23 0-1.37-.82-2.17t-2.46-.8-2.45.8q-.82.8-.82 2.17 0 .65.2 1.21.21.56.62.96.4.41 1.02.63.62.23 1.43.23m5.02 10.51q0-.54-.32-.88-.32-.35-.88-.54-.56-.18-1.31-.27-.74-.09-1.58-.14-.84-.04-1.73-.08t-1.74-.14q-.73.41-1.19.97t-.46 1.29q0 .49.24.91.24.43.78.73.53.31 1.37.48.85.17 2.07.17 1.24 0 2.14-.19t1.49-.52q.58-.33.85-.79t.27-1m-.88-18.67h5.31v1.66q0 .79-.95.97l-1.66.31q.38.95.38 2.08 0 1.37-.55 2.48t-1.52 1.88-2.29 1.2q-1.33.42-2.86.42-.54 0-1.04-.05-.51-.06-.99-.15-.87.52-.87 1.17 0 .56.52.82.51.26 1.36.37.84.11 1.92.13 1.08.03 2.22.12 1.13.09 2.21.32 1.08.22 1.93.71.84.48 1.36 1.32.51.84.51 2.15 0 1.23-.6 2.38-.61 1.15-1.75 2.05t-2.81 1.45q-1.66.55-3.79.55-2.09 0-3.63-.41-1.55-.4-2.58-1.08-1.02-.67-1.53-1.55-.5-.89-.5-1.84 0-1.3.78-2.17t2.15-1.39q-.74-.38-1.17-1.01t-.43-1.66q0-.41.15-.85.16-.44.45-.88.3-.43.75-.82.45-.38 1.06-.69-1.4-.75-2.2-2.01t-.8-2.96q0-1.36.55-2.47.54-1.11 1.53-1.89.98-.78 2.32-1.2 1.34-.41 2.92-.41 1.19 0 2.23.24 1.05.24 1.91.71m35.75-8.19v3.98h-7.85v22.05h-4.84v-22.05h-7.85v-3.98zm6.64 8.68.27 2.09q.87-1.66 2.05-2.61 1.19-.94 2.81-.94 1.28 0 2.05.56l-.28 3.33q-.09.32-.26.46-.18.13-.46.13-.27 0-.8-.09-.54-.09-1.04-.09-.74 0-1.31.22-.58.21-1.04.62-.46.4-.81.98t-.66 1.31v11.38h-4.44v-18.47h2.61q.68 0 .95.24.27.25.36.88m17.68-1.41q2.05 0 3.73.67 1.69.67 2.88 1.89 1.2 1.22 1.85 2.99.65 1.76.65 3.94 0 2.2-.65 3.96t-1.85 3.01q-1.19 1.24-2.88 1.9-1.68.67-3.73.67-2.07 0-3.76-.67-1.7-.66-2.89-1.9-1.2-1.25-1.86-3.01-.65-1.76-.65-3.96 0-2.18.65-3.94.66-1.77 1.86-2.99 1.19-1.22 2.89-1.89 1.69-.67 3.76-.67m0 15.61q2.3 0 3.41-1.55t1.11-4.53q0-2.99-1.11-4.56-1.11-1.56-3.41-1.56-2.34 0-3.47 1.57-1.12 1.58-1.12 4.55t1.12 4.52q1.13 1.56 3.47 1.56m16.36-14.51.31 1.46q.55-.56 1.18-1.04.62-.47 1.31-.81.69-.33 1.48-.52.8-.19 1.73-.19 1.51 0 2.68.52 1.17.51 1.96 1.44.78.92 1.19 2.21.4 1.29.4 2.84v11.75h-4.45v-11.75q0-1.7-.77-2.62-.77-.93-2.36-.93-1.15 0-2.16.52t-1.91 1.42v13.36h-4.44v-18.47h2.72q.86 0 1.13.81m23.2 7.98q.83 0 1.44-.23.61-.22 1.02-.62.4-.4.61-.95.21-.56.21-1.23 0-1.37-.82-2.17t-2.46-.8-2.45.8q-.82.8-.82 2.17 0 .65.2 1.21.21.56.62.96.4.41 1.02.63.62.23 1.43.23m5.02 10.51q0-.54-.32-.88-.32-.35-.88-.54-.56-.18-1.31-.27-.74-.09-1.58-.14-.84-.04-1.73-.08t-1.74-.14q-.73.41-1.19.97t-.46 1.29q0 .49.24.91.24.43.78.73.53.31 1.37.48.85.17 2.07.17 1.24 0 2.14-.19t1.49-.52q.58-.33.85-.79t.27-1m-.88-18.67h5.31v1.66q0 .79-.95.97l-1.66.31q.38.95.38 2.08 0 1.37-.55 2.48t-1.52 1.88-2.29 1.2q-1.33.42-2.86.42-.54 0-1.04-.05-.51-.06-.99-.15-.87.52-.87 1.17 0 .56.52.82.51.26 1.36.37.84.11 1.92.13 1.08.03 2.22.12 1.13.09 2.21.32 1.08.22 1.93.71.84.48 1.36 1.32.51.84.51 2.15 0 1.23-.6 2.38-.61 1.15-1.75 2.05t-2.81 1.45q-1.66.55-3.79.55-2.09 0-3.63-.41-1.55-.4-2.58-1.08-1.02-.67-1.53-1.55-.5-.89-.5-1.84 0-1.3.78-2.17t2.15-1.39q-.74-.38-1.17-1.01t-.43-1.66q0-.41.15-.85.16-.44.45-.88.3-.43.75-.82.45-.38 1.06-.69-1.4-.75-2.2-2.01t-.8-2.96q0-1.36.55-2.47.54-1.11 1.53-1.89.98-.78 2.32-1.2 1.34-.41 2.92-.41 1.19 0 2.23.24 1.05.24 1.91.71"/></svg>